<svg width="1200" height="210" viewBox="0 0 1200 210" fill="none" xmlns="http://www.w3.org/2000/svg">
  <rect width="1200" height="210" rx="22" fill="#0B1220"/>
  <defs>
    <linearGradient id="chip" x1="0" y1="0" x2="220" y2="56">
      <stop stop-color="#1E3A8A"/>
      <stop offset="1" stop-color="#0F766E"/>
    </linearGradient>
  </defs>
  <g font-family="Inter, Segoe UI, Arial, sans-serif" font-size="22" font-weight="700" fill="#E2E8F0">
    <g transform="translate(55 42)"><rect width="145" height="48" rx="12" fill="url(#chip)"/><text x="27" y="31">Python</text><animateTransform attributeName="transform" type="translate" values="55 42;55 34;55 42" dur="3s" repeatCount="indefinite"/></g>
    <g transform="translate(225 42)"><rect width="125" height="48" rx="12" fill="#1D4ED8"/><text x="30" y="31">C/C++</text><animateTransform attributeName="transform" type="translate" values="225 42;225 51;225 42" dur="3.6s" repeatCount="indefinite"/></g>
    <g transform="translate(375 42)"><rect width="170" height="48" rx="12" fill="#0F766E"/><text x="30" y="31">FastAPI</text><animateTransform attributeName="transform" type="translate" values="375 42;375 34;375 42" dur="3.2s" repeatCount="indefinite"/></g>
    <g transform="translate(570 42)"><rect width="155" height="48" rx="12" fill="#B45309"/><text x="30" y="31">Node.js</text><animateTransform attributeName="transform" type="translate" values="570 42;570 52;570 42" dur="3.4s" repeatCount="indefinite"/></g>
    <g transform="translate(750 42)"><rect width="175" height="48" rx="12" fill="#155E75"/><text x="30" y="31">LangGraph</text><animateTransform attributeName="transform" type="translate" values="750 42;750 34;750 42" dur="3.8s" repeatCount="indefinite"/></g>
    <g transform="translate(950 42)"><rect width="160" height="48" rx="12" fill="#334155"/><text x="43" y="31">Docker</text><animateTransform attributeName="transform" type="translate" values="950 42;950 51;950 42" dur="3.1s" repeatCount="indefinite"/></g>
    <g transform="translate(115 122)"><rect width="185" height="48" rx="12" fill="#1D4ED8"/><text x="28" y="31">PostgreSQL</text><animateTransform attributeName="transform" type="translate" values="115 122;115 113;115 122" dur="3.5s" repeatCount="indefinite"/></g>
    <g transform="translate(325 122)"><rect width="120" height="48" rx="12" fill="#B91C1C"/><text x="34" y="31">Redis</text><animateTransform attributeName="transform" type="translate" values="325 122;325 131;325 122" dur="2.9s" repeatCount="indefinite"/></g>
    <g transform="translate(470 122)"><rect width="110" height="48" rx="12" fill="#0F766E"/><text x="36" y="31">RAG</text><animateTransform attributeName="transform" type="translate" values="470 122;470 114;470 122" dur="3.6s" repeatCount="indefinite"/></g>
    <g transform="translate(605 122)"><rect width="210" height="48" rx="12" fill="#6D28D9"/><text x="28" y="31">Bayesian Nets</text><animateTransform attributeName="transform" type="translate" values="605 122;605 131;605 122" dur="3.7s" repeatCount="indefinite"/></g>
    <g transform="translate(840 122)"><rect width="130" height="48" rx="12" fill="#B45309"/><text x="43" y="31">AWS</text><animateTransform attributeName="transform" type="translate" values="840 122;840 114;840 122" dur="3.2s" repeatCount="indefinite"/></g>
    <g transform="translate(995 122)"><rect width="115" height="48" rx="12" fill="#0E7490"/><text x="27" y="31">React</text><animateTransform attributeName="transform" type="translate" values="995 122;995 131;995 122" dur="3.3s" repeatCount="indefinite"/></g>
  </g>
</svg>
